HIERARCHY
ROOT hip
{
  OFFSET 0 0 0
  CHANNELS 6 Xposition Yposition Zposition Zrotation Yrotation Xrotation
  JOINT abdomen
  {
    OFFSET 0 20.6881 -0.73152
    CHANNELS 3 Zrotation Xrotation Yrotation
    JOINT chest
    {
      OFFSET 0 11.7043 -0.48768
      CHANNELS 3 Zrotation Xrotation Yrotation
      JOINT neck
      {
        OFFSET 0 22.1894 -2.19456
        CHANNELS 3 Zrotation Xrotation Yrotation
        JOINT head
        {
          OFFSET -0.24384 7.07133 1.2192
          CHANNELS 3 Zrotation Xrotation Yrotation
          JOINT leftEye
          {
            OFFSET 4.14528 8.04674 8.04672
            CHANNELS 3 Zrotation Xrotation Yrotation
            End Site
            {
              OFFSET 1 0 0
            }
          }
          JOINT rightEye
          {
            OFFSET -3.6576 8.04674 8.04672
            CHANNELS 3 Zrotation Xrotation Yrotation
            End Site
            {
              OFFSET 1 0 0
            }
          }
        }
      }
      JOINT rCollar
      {
        OFFSET -2.68224 19.2634 -4.8768
        CHANNELS 3 Zrotation Xrotation Yrotation
        JOINT rShldr
        {
          OFFSET -8.77824 -1.95073 1.46304
          CHANNELS 3 Zrotation Xrotation Yrotation
          JOINT rForeArm
          {
            OFFSET -28.1742 -1.7115 0.48768
            CHANNELS 3 Zrotation Xrotation Yrotation
            JOINT rHand
            {
              OFFSET -22.5879 0.773209 7.07136
              CHANNELS 3 Zrotation Xrotation Yrotation
              JOINT rThumb1
              {
                OFFSET -1.2192 -0.487915 3.41376
                CHANNELS 3 Zrotation Xrotation Yrotation
                JOINT rThumb2
                {
                  OFFSET -3.37035 -0.52449 3.41376
                  CHANNELS 3 Zrotation Xrotation Yrotation
                  End Site
                  {
                    OFFSET -1.78271 -1.18214 1.43049
                  }
                }
              }
              JOINT rIndex1
              {
                OFFSET -7.75947 0.938293 5.60832
                CHANNELS 3 Zrotation Xrotation Yrotation
                JOINT rIndex2
                {
                  OFFSET -2.54057 -0.884171 1.56538
                  CHANNELS 3 Zrotation Xrotation Yrotation
                  End Site
                  {
                    OFFSET -1.62519 -0.234802 1.16502
                  }
                }
              }
              JOINT rMid1
              {
                OFFSET -8.24714 1.18213 3.41376
                CHANNELS 3 Zrotation Xrotation Yrotation
                JOINT rMid2
                {
                  OFFSET -3.10165 -0.590103 1.0647
                  CHANNELS 3 Zrotation Xrotation Yrotation
                  End Site
                  {
                    OFFSET -2.48547 -0.328903 0.83742
                  }
                }
              }
              JOINT rRing1
              {
                OFFSET -8.82822 0.546677 1.51678
                CHANNELS 3 Zrotation Xrotation Yrotation
                JOINT rRing2
                {
                  OFFSET -2.60934 -0.819778 -0.0198488
                  CHANNELS 3 Zrotation Xrotation Yrotation
                  End Site
                  {
                    OFFSET -2.33842 -0.294052 0.168128
                  }
                }
              }
              JOINT rPinky1
              {
                OFFSET -8.27202 -0.0477905 -0.4584
                CHANNELS 3 Zrotation Xrotation Yrotation
                JOINT rPinky2
                {
                  OFFSET -1.82734 -0.647385 -0.700984
                  CHANNELS 3 Zrotation Xrotation Yrotation
                  End Site
                  {
                    OFFSET -1.69225 -0.51767 -0.607171
                  }
                }
              }
            }
          }
        }
      }
      JOINT lCollar
      {
        OFFSET 2.68224 19.2634 -4.8768
        CHANNELS 3 Zrotation Xrotation Yrotation
        JOINT lShldr
        {
          OFFSET 8.77824 -1.95073 1.46304
          CHANNELS 3 Zrotation Xrotation Yrotation
          JOINT lForeArm
          {
            OFFSET 28.1742 -1.7115 0.48768
            CHANNELS 3 Zrotation Xrotation Yrotation
            JOINT lHand
            {
              OFFSET 22.5879 0.773209 7.07136
              CHANNELS 3 Zrotation Xrotation Yrotation
              JOINT lThumb1
              {
                OFFSET 1.2192 -0.487915 3.41376
                CHANNELS 3 Zrotation Xrotation Yrotation
                JOINT lThumb2
                {
                  OFFSET 3.37035 -0.52449 3.41376
                  CHANNELS 3 Zrotation Xrotation Yrotation
                  End Site
                  {
                    OFFSET 1.78271 -1.18214 1.43049
                  }
                }
              }
              JOINT lIndex1
              {
                OFFSET 7.75947 0.938293 5.60832
                CHANNELS 3 Zrotation Xrotation Yrotation
                JOINT lIndex2
                {
                  OFFSET 2.54057 -0.884171 1.56538
                  CHANNELS 3 Zrotation Xrotation Yrotation
                  End Site
                  {
                    OFFSET 1.62519 -0.234802 1.16502
                  }
                }
              }
              JOINT lMid1
              {
                OFFSET 8.24714 1.18213 3.41376
                CHANNELS 3 Zrotation Xrotation Yrotation
                JOINT lMid2
                {
                  OFFSET 3.10165 -0.590103 1.0647
                  CHANNELS 3 Zrotation Xrotation Yrotation
                  End Site
                  {
                    OFFSET 2.48547 -0.328903 0.83742
                  }
                }
              }
              JOINT lRing1
              {
                OFFSET 8.82822 0.546677 1.51678
                CHANNELS 3 Zrotation Xrotation Yrotation
                JOINT lRing2
                {
                  OFFSET 2.60934 -0.819778 -0.0198488
                  CHANNELS 3 Zrotation Xrotation Yrotation
                  End Site
                  {
                    OFFSET 2.33842 -0.294052 0.168128
                  }
                }
              }
              JOINT lPinky1
              {
                OFFSET 8.27202 -0.0477905 -0.4584
                CHANNELS 3 Zrotation Xrotation Yrotation
                JOINT lPinky2
                {
                  OFFSET 1.82734 -0.647385 -0.700984
                  CHANNELS 3 Zrotation Xrotation Yrotation
                  End Site
                  {
                    OFFSET 1.69225 -0.51767 -0.607171
                  }
                }
              }
            }
          }
        }
      }
    }
  }
  JOINT rButtock
  {
    OFFSET -8.77824 4.35084 1.2192
    CHANNELS 3 Zrotation Xrotation Yrotation
    JOINT rThigh
    {
      OFFSET 0 -1.70687 -2.19456
      CHANNELS 3 Zrotation Xrotation Yrotation
      JOINT rShin
      {
        OFFSET 0 -36.8199 0.73152
        CHANNELS 3 Zrotation Xrotation Yrotation
        JOINT rFoot
        {
          OFFSET 0.73152 -45.1104 -5.12064
          CHANNELS 3 Zrotation Xrotation Yrotation
          End Site
          {
            OFFSET -1.1221 -3.69964 12.103
          }
        }
      }
    }
  }
  JOINT lButtock
  {
    OFFSET 8.77824 4.35084 1.2192
    CHANNELS 3 Zrotation Xrotation Yrotation
    JOINT lThigh
    {
      OFFSET 0 -1.70687 -2.19456
      CHANNELS 3 Zrotation Xrotation Yrotation
      JOINT lShin
      {
        OFFSET 0 -36.8199 0.73152
        CHANNELS 3 Zrotation Xrotation Yrotation
        JOINT lFoot
        {
          OFFSET -0.73152 -45.1104 -5.12064
          CHANNELS 3 Zrotation Xrotation Yrotation
          End Site
          {
            OFFSET 1.1221 -3.69964 12.103
          }
        }
      }
    }
  }
}
MOTION
Frames:	4
Frame Time:	0.03333
-0.4121900126338005 56.441009521484375 3.1793042086064816 -22.291308045387268 -13.700553327798843 -7.638062238693237 -17.572607696056366 30.47157347202301 -1.4029083028435707 2.2419465333223343 -2.4496695399284363 -13.882482200860977 -15.98723441362381 23.967873752117157 -13.964077681303024 9.408828467130661 -28.847726583480835 -17.999800443649292 12.782700061798096 8.716074228286743 0.9546166285872459 -0.14645397663116455 1.0804792866110802 -3.1821975857019424 7.4026937037706375 -0.07152412086725235 -2.7110491320490837 52.955984473228455 42.9564705491066 19.287201762199402 -20.886562764644623 -33.14346671104431 74.03438687324524 -8.936720788478851 -23.309635519981384 -14.959732443094254 -0.4138125479221344 1.3708233833312988 2.6575836539268494 -0.17434392124414444 11.687521934509277 -6.359952092170715 -2.192955818027258 -7.953243255615234 3.156575784087181 -7.2884490340948105 -6.1516497284173965 -3.909836634993553 8.065153062343597 -10.907208323478699 -8.205761834979057 -3.838748373091221 -4.182998165488243 9.485091045498848 9.020098596811295 12.504997551441193 -3.0618837475776672 2.7445088513195515 2.4304790049791336 0.72303906083107 8.837420716881752 11.720354855060577 7.232172936201096 4.094555675983429 -5.769306868314743 8.680447787046432 2.2346318140625954 -2.958667315542698 -11.668773293495178 -64.80407416820526 38.53624641895294 -25.52002787590027 14.932638108730316 -16.701495945453644 -59.75895702838898 9.776622354984283 -2.760297507047653 6.044482737779617 -1.3740504160523415 -11.798777282238007 -13.590845614671707 -16.963995695114136 13.432799130678177 -1.692693829536438 0.7135219126939774 -3.4908246248960495 8.324502557516098 2.4076614528894424 3.1626395881175995 0.3260962665081024 7.595141530036926 9.244299754500389 -7.822311893105507 0.13563260436058044 -9.086958020925522 -6.9736602902412415 -6.5154095739126205 0.0006531178951263428 0.6359470635652542 -18.80787894129753 1.1171216145157814 1.0531249456107616 -4.057908654212952 -7.643187269568443 11.5631103515625 -19.952183067798615 -6.207322329282761 -2.4962246417999268 2.082182429730892 6.747055873274803 2.185022681951523 -33.48631203174591 -33.813756108284 -36.84718698263168 -20.837615132331848 63.374982476234436 24.066463708877563 -2.2759877890348434 -9.323273375630379 -13.316587060689926 6.860417425632477 -1.7600306868553162 -0.6963209062814713 47.81174898147583 -29.610096216201782 30.396482348442078 25.42837679386139 66.6954231262207 -22.38899677991867 11.015792861580849 -12.475410103797913 15.435782968997955
-0.41724996734410524 56.06024169921875 3.1734549254179 -19.356617331504822 -11.46668091416359 -11.361998319625854 -17.59177476167679 29.072383046150208 -1.3439935818314552 3.3257735520601273 -3.553905487060547 -13.94756332039833 -15.091049373149872 24.125646650791168 -14.029791802167892 9.80162188410759 -29.107117652893066 -16.569775342941284 12.169058918952942 9.378177523612976 0.37381645292043686 0.041922926902770996 1.7847522720694542 -3.961711898446083 7.827461734414101 -0.05647290498018265 -2.0712242648005486 54.67089235782623 43.904341757297516 20.019932985305786 -20.30951499938965 -33.96851420402527 75.5715662240982 -8.358077108860016 -24.83163893222809 -15.924410372972488 -0.7222987711429596 1.8173226714134216 3.218165338039398 -0.4960266128182411 11.19729459285736 -6.383882761001587 -1.2422307394444942 -7.759614586830139 2.391481027007103 -6.352454647421837 -5.970085635781288 -3.7925007194280624 7.091264426708221 -10.49420177936554 -9.03867356479168 -3.3927184715867043 -3.483917936682701 9.349006488919258 8.041371256113052 12.711897790431976 -1.8389788269996643 2.9126670956611633 2.9003912955522537 1.2022532522678375 8.909851089119911 11.551828980445862 6.384981125593185 3.7521904706954956 -5.909618586301804 8.206826001405716 2.678958512842655 -2.6164496317505836 -10.948707461357117 -66.7106580734253 38.402597308158875 -24.856706857681274 14.113389551639557 -18.013621866703033 -62.13469684123993 10.192257463932037 -1.789809912443161 6.8406374752521515 -1.4793110266327858 -10.647917166352272 -12.829497903585434 -16.49593949317932 13.287063986063004 -1.4996230602264404 0.8428043872117996 -2.745143696665764 7.744254916906357 2.1030697971582413 2.4039284884929657 1.1314134299755096 6.793531179428101 9.075199887156487 -7.593626752495766 0.4227040708065033 -9.225188344717026 -6.655595898628235 -5.3538575023412704 -0.2813543379306793 1.4806122332811356 -18.76847192645073 1.0471588745713234 0.3015860728919506 -4.152440428733826 -6.947288140654564 11.414856612682343 -19.04614359140396 -6.1457763612270355 -2.24045991897583 1.6092821583151817 7.165920361876488 2.0825783908367157 -35.07832109928131 -32.63647019863129 -37.894841730594635 -22.786551117897034 63.3000522851944 26.61239504814148 -3.159180209040642 -9.226762130856514 -12.039877027273178 6.98043018579483 -1.1594948172569275 -1.134754791855812 50.00933647155762 -29.953907132148743 33.45714032649994 27.481221556663513 67.85640120506287 -25.48889547586441 11.660791039466858 -13.04276704788208 16.08057528734207
-0.4211915601044893 56.606632232666016 3.1956178285181522 -23.478756844997406 -14.560405164957047 -6.017664670944214 -17.624996602535248 31.06906235218048 -1.4633384719491005 1.8167627602815628 -2.1055394411087036 -13.993606120347977 -16.24370187520981 23.836273849010468 -14.021895378828049 9.253362268209457 -28.650788068771362 -18.60463857650757 12.828576564788818 8.495532274246216 1.099058948457241 -0.19366085529327393 0.6947186216711998 -2.909524217247963 7.18888945877552 -0.08011925965547562 -2.9740021750330925 52.289530634880066 42.58645445108414 18.946062326431274 -21.1511492729187 -32.804532051086426 73.40793013572693 -9.17622596025467 -22.84779667854309 -14.623555094003677 -0.2582766115665436 1.2101617455482483 2.5128355622291565 0.03447141498327255 11.891916990280151 -6.415237784385681 -2.4981161020696163 -8.042389154434204 3.2727905362844467 -7.59232722222805 -6.324265971779823 -3.910743221640587 8.572487533092499 -11.023251414299011 -7.971551343798637 -3.916124738752842 -4.321271404623985 9.611203148961067 9.235812574625015 12.366464138031006 -3.5422727465629578 2.692157495766878 2.3390907794237137 0.4575486481189728 8.646259680390358 11.891906261444092 7.519072741270065 4.294927418231964 -5.747012346982956 8.846307545900345 2.037231959402561 -3.1420445814728737 -11.933797001838684 -64.09193158149719 38.50978910923004 -25.784364938735962 15.228040516376495 -16.041742265224457 -58.71123790740967 9.706874191761017 -3.245498389005661 5.864367038011551 -1.301078237593174 -12.242972552776337 -13.83657619357109 -17.07047939300537 13.565488010644913 -1.655513048171997 0.5619073659181595 -3.802529498934746 8.618697971105576 2.4299506098031998 3.4198097884655 0.14789029955863953 7.889417409896851 9.258172139525414 -7.908904328942299 0.09479865431785583 -9.029623121023178 -6.96645587682724 -6.916448101401329 0.15712246298789978 0.4432518035173416 -18.67078587412834 1.246720589697361 1.1889761500060558 -3.9099526405334473 -7.874028906226158 11.530250608921051 -20.320723950862885 -6.177008002996445 -2.537766695022583 2.157295010983944 6.6028281301259995 2.2688309848308563 -32.75181591510773 -34.188557267189026 -36.301609575748444 -19.89103138446808 63.38180601596832 23.04481029510498 -2.0491158217191696 -9.28741492331028 -13.857352584600449 6.766078770160675 -2.0762845873832703 -0.5399159342050552 46.843353509902954 -29.36394453048706 29.059685468673706 24.57920014858246 66.09150767326355 -21.245072185993195 10.900747552514076 -12.305969595909119 15.042088329792023
-0.42589238192886114 57.46693420410156 3.25061521679163 -26.868664026260376 -18.001711517572403 0.4211390018463135 -17.098983228206635 31.911168694496155 -1.619429625570774 0.8453632146120071 -1.1464941501617432 -14.180081337690353 -15.737260580062866 23.349125683307648 -14.694089144468307 7.991093248128891 -27.908722758293152 -19.742624759674072 12.783290147781372 8.602327108383179 0.7222514972090721 -0.5321449041366577 -0.2918059006333351 -2.4285397678613663 6.754119470715523 -0.8720790222287178 -3.757893852889538 50.37208378314972 41.91425800323486 17.607425451278687 -21.664081513881683 -30.44988512992859 70.9964793920517 -9.176118671894073 -20.865042060613632 -13.45642939209938 0.611177533864975 0.7397693395614624 2.942911684513092 -0.059231556951999664 12.609622478485107 -6.597504615783691 -3.026178851723671 -8.309934139251709 2.8937407582998276 -7.450567111372948 -6.58451534807682 -3.716685399413109 9.910373389720917 -11.601718068122864 -7.251458689570427 -4.257446564733982 -4.230103120207787 10.160535648465157 9.791394621133804 12.122254371643066 -4.086315929889679 3.014494478702545 2.057512477040291 0.09395912289619446 8.087711110711098 12.972576320171356 7.414112538099289 5.166116952896118 -6.074198931455612 8.857242912054062 1.7005101218819618 -3.085428513586521 -11.58159077167511 -61.89564764499664 38.16667020320892 -27.051247358322144 15.163045227527618 -12.868184745311737 -55.428900718688965 9.540582597255707 -5.500946491956711 5.68487361073494 -1.7358482256531715 -12.636699378490448 -14.374884814023972 -16.64677619934082 13.827754408121109 -1.2709110975265503 0.7554072886705399 -3.9758270233869553 9.506852477788925 2.1494854241609573 4.266379326581955 0.40099427103996277 8.931428790092468 8.849266692996025 -7.827869430184364 0.9373019635677338 -9.017950147390366 -6.724448204040527 -6.791564449667931 0.16313329339027405 0.3522122651338577 -17.99769088625908 1.322675384581089 1.6916784457862377 -3.5690894722938538 -7.701106891036034 11.680097579956055 -20.92284768819809 -5.614881366491318 -2.733396291732788 1.5751322731375694 6.290372237563133 2.3237626254558563 -29.652711153030396 -34.544915556907654 -33.71634095907211 -15.307973027229309 62.46129333972931 17.831191420555115 -2.3583101481199265 -8.694821074604988 -15.653531402349472 6.179104149341583 -2.9477986693382263 -0.7035628706216812 41.903947591781616 -28.54124665260315 24.302659034729004 20.046862363815308 64.00630474090576 -16.209699511528015 9.589445069432259 -12.06697404384613 14.429815113544464
